<?xml version="1.0" encoding="utf-8"?>
<!-- Generator: Adobe Illustrator 19.0.0, SVG Export Plug-In . SVG Version: 6.00 Build 0)  -->
<svg fill="white" version="1.1" id="Layer_1" xmlns="http://www.w3.org/2000/svg" xmlns:xlink="http://www.w3.org/1999/xlink" x="0px" y="0px"
	 viewBox="0 0 512 512" style="enable-background:new 0 0 512 512;" xml:space="preserve">
<g id="XMLID_2_">
	<path id="XMLID_8_" d="M256,102.4V0L128,128l128,128V153.6c84.5,0,153.6,69.1,153.6,153.6S340.5,460.8,256,460.8
		s-153.6-69.1-153.6-153.6H51.2C51.2,419.8,143.4,512,256,512s204.8-92.2,204.8-204.8S368.6,102.4,256,102.4z M227.8,384h-21.3
		v-83.6l-25.6,7.7v-17.9l45.2-16.2h2.6V384H227.8z M337.1,339.6c0,7.7-1.7,15.4-2.6,20.5c-1.7,5.1-4.3,10.2-7.7,13.7
		c-3.4,3.4-7.7,6.8-11.1,9.4c-4.3,2.6-9.4,2.6-15.4,2.6c-6,0-10.2-1.7-15.4-2.6c-5.1-1.7-8.5-5.1-11.1-9.4
		c-2.6-4.3-6.8-8.5-7.7-13.7c-1.7-5.1-2.6-12.8-2.6-20.5V320c0-7.7,0.9-15.4,2.6-20.5c1.7-5.1,4.3-10.2,7.7-13.7
		c3.4-3.4,7.7-6.8,11.1-8.5c4.3-2.6,8.5-2.6,15.4-2.6s10.2,1.7,15.4,2.6c5.1,0.9,8.5,5.1,11.1,8.5c2.6,3.4,6.8,8.5,7.7,13.7
		c0.9,5.1,2.6,12.8,2.6,20.5V339.6z M315.7,317.4c0-5.1,0-8.5-0.9-12.8c-1.7-4.3-1.7-6.8-2.6-7.7c-0.9-0.9-2.6-4.3-5.1-4.3
		s-4.3-0.9-6.8-0.9s-5.1,0-6.8,0.9c-1.7,1.7-4.3,2.6-5.1,4.3c-1.7,1.7-2.6,5.1-2.6,7.7s-0.9,7.7-0.9,12.8v23.9c0,5.1,0,8.5,0.9,12.8
		c1.7,4.3,1.7,6.8,2.6,7.7c0.9,0.9,2.6,4.3,5.1,4.3s5.1,0.9,7.7,0.9s5.1,0,6.8-0.9c1.7-1.7,4.3-2.6,5.1-4.3c1.7-1.7,2.6-5.1,2.6-7.7
		s0-6.8,0-12.8V317.4z"/>
</g>
</svg>
