<?xml version="1.0" encoding="utf-8"?>
<!-- Generator: Adobe Illustrator 24.1.1, SVG Export Plug-In . SVG Version: 6.00 Build 0)  -->
<svg version="1.1" id="Layer_1" xmlns="http://www.w3.org/2000/svg" xmlns:xlink="http://www.w3.org/1999/xlink" x="0px" y="0px"
	 viewBox="0 0 512 512" style="enable-background:new 0 0 512 512;" xml:space="preserve">
<style type="text/css">
	.st0{fill-rule:evenodd;clip-rule:evenodd;fill:white;}
</style>
<g>
	<path class="st0" d="M409.6,307.2c0,84.72-68.88,153.6-153.6,153.6c-84.75,0-153.6-68.88-153.6-153.6S171.25,153.6,256,153.6V256
		l128-128L256,0v102.4c-113.15,0-204.8,91.65-204.8,204.8S142.85,512,256,512s204.8-91.65,204.8-204.8H409.6z M227.82,384V274.67
		h-2.3l-45.3,16.15v17.65l25.85-7.93V384H227.82z M315.4,275.98c-4.63-1.8-9.48-2.58-15.13-2.58c-5.63,0-10.48,0.77-15.1,2.58
		c-4.6,1.77-8.45,4.6-11.52,8.45c-3.05,3.83-5.88,8.7-7.42,14.58c-1.52,5.9-2.55,12.8-2.55,21v18.95c0,8.17,1.03,15.35,2.83,20.97
		c1.77,5.65,4.35,10.75,7.67,14.6c3.33,3.85,7.18,6.65,11.78,8.45c4.6,1.8,9.47,2.55,15.1,2.55s10.5-0.75,15.1-2.55
		c4.63-1.8,8.45-4.6,11.52-8.45c3.08-3.85,5.63-8.7,7.43-14.6c1.8-5.88,2.55-12.8,2.55-20.97V320c0-8.2-1.02-15.35-2.8-21
		c-1.8-5.63-4.35-10.75-7.68-14.58C323.83,280.58,319.75,277.75,315.4,275.98z M315.65,341.75c0,4.88-0.25,8.98-1.02,12.3
		c-0.77,3.33-1.55,6.15-2.83,8.2l-4.85,4.35l-6.4,1.27c-2.32,0-4.63-0.52-6.4-1.27l-4.88-4.35c-1.27-2.05-2.3-4.88-3.07-8.2
		c-0.78-3.32-1.03-7.42-1.03-12.3v-24.83c0-4.85,0.25-8.95,1.03-12.27c0.77-3.35,1.55-5.9,3.07-7.95l4.88-4.35
		c2.05-0.77,4.08-1.27,6.4-1.27l6.4,1.27l4.85,4.35c1.28,2.05,2.3,4.6,3.08,7.95c0.77,3.33,1.02,7.43,1.02,12.27v24.83H315.65z"/>
</g>
</svg>
